Coordinates
version=1
nRows=16
nColumns=28
inDegrees=yes

Units are S.I. units (second, meters, Newtons, ...)
Angles are in degrees.

endheader
time	pelvis_tilt	pelvis_list	pelvis_rotation	pelvis_tx	pelvis_ty	pelvis_tz	hip_flexion_r	hip_adduction_r	hip_rotation_r	knee_angle_r	ankle_angle_r	subtalar_angle_r	mtp_angle_r	hip_flexion_l	hip_adduction_l	hip_rotation_l	knee_angle_l	socket_flexion	socket_adduction	socket_rotation	socket_tx	socket_ty	socket_tz	foot_flex	lumbar_extension	lumbar_bending	lumbar_rotation
      0.62083333	      0.56260908	     -1.55046325	      3.50654606	     -0.00660445	      0.98555984	      0.29366759	     27.02833771	      1.36230681	    -11.21691830	    -12.43977046	      8.38082782	    -10.42666344	     14.62961482	    -16.30050267	     -0.59201563	     16.38036614	    -23.07498355	     -9.98016289	      0.00000000	      0.00000000	      0.00000000	      0.00000000	      0.00000000	      7.84361679	    -13.83614850	      2.07873288	      0.04365497
      0.62500000	      0.40924395	     -1.42408760	      3.40895612	     -0.00659865	      0.98528697	      0.29382815	     27.27163977	      1.24953890	    -11.12562986	    -12.60658673	      8.73269257	     -9.93963614	     14.28607351	    -16.15889028	     -0.42435780	     16.35183552	    -23.05020825	     -9.96357737	      0.00000000	      0.00000000	      0.00000000	      0.00000000	      0.00000000	      7.78699431	    -13.65550844	      1.88759379	      0.17570490
      0.62916667	      0.59344605	     -1.70144075	      3.49462754	     -0.00034852	      0.98473047	      0.29376734	     27.10902626	      1.52049742	    -11.18458599	    -13.06810818	      7.03912544	    -10.95343765	     18.01997001	    -16.54012755	     -0.71989439	     16.30290291	    -23.39433452	     -9.98114003	      0.00000000	      0.00000000	      0.00000000	      0.00000000	      0.00000000	      7.72759775	    -13.78814394	      2.37819667	      0.11240599
      0.63333333	      0.61699184	     -1.83818666	      3.48714092	      0.00580058	      0.98399900	      0.29390685	     27.21534324	      1.68117149	    -11.03525509	    -13.79363820	      6.69965137	    -10.95495225	     17.99134117	    -16.78393809	     -0.83575993	     16.34787872	    -23.61513571	     -9.89460782	      0.00000000	      0.00000000	      0.00000000	      0.00000000	      0.00000000	      7.58201565	    -13.75377678	      2.66073478	      0.11359075
      0.63750000	      0.68085731	     -2.03037505	      3.35849456	      0.01207387	      0.98327287	      0.29431810	     27.34196183	      1.92524206	    -11.04129618	    -14.64163501	      6.01989542	    -11.06876894	     17.97250332	    -17.02622685	     -0.98557892	     16.01260803	    -24.00681121	     -9.90238252	      0.00000000	      0.00000000	      0.00000000	      0.00000000	      0.00000000	      7.43161694	    -13.74332256	      2.95276987	      0.17174471
      0.64166667	      0.71906263	     -2.19760819	      3.29421591	      0.01828543	      0.98263069	      0.29448041	     27.42182903	      2.12579314	    -10.90478879	    -15.37165869	      5.56810869	    -11.16093315	     17.98329374	    -17.24317799	     -1.10352342	     15.91398462	    -24.32287496	     -9.83078588	      0.00000000	      0.00000000	      0.00000000	      0.00000000	      0.00000000	      7.22844693	    -13.70843296	      3.28729679	      0.23817566
      0.64583333	      0.75256741	     -2.50133248	      3.01238851	      0.02438643	      0.98197278	      0.29509513	     27.42313541	      2.65652915	    -10.17380027	    -15.82495044	      4.31659113	    -12.57425411	     18.85584560	    -17.41821304	     -1.30489686	     15.48156877	    -24.79387471	     -9.85137963	      0.00000000	      0.00000000	      0.00000000	      0.00000000	      0.00000000	      7.08499599	    -13.70726055	      3.68728230	      0.75731256
      0.65000000	      0.79385697	     -2.68622297	      2.89444823	      0.03067233	      0.98143081	      0.29544595	     27.53654860	      2.87512271	    -10.14638301	    -16.64665127	      3.85301198	    -12.57795716	     18.88401438	    -17.62600988	     -1.43566599	     15.27236219	    -25.11509540	     -9.74600163	      0.00000000	      0.00000000	      0.00000000	      0.00000000	      0.00000000	      6.77769489	    -13.67325465	      3.98852866	      0.74116312
      0.65416667	      0.83601092	     -2.91846695	      2.75783326	      0.03696525	      0.98093350	      0.29579347	     27.62353054	      3.15196780	    -10.07311398	    -17.41844958	      3.36753306	    -12.63239867	     18.95966267	    -17.79770579	     -1.59758978	     15.01779312	    -25.52932573	     -9.66150360	      0.00000000	      0.00000000	      0.00000000	      0.00000000	      0.00000000	      6.52368100	    -13.65123049	      4.35761289	      0.84794350
      0.65833333	      0.88036379	     -3.20537091	      2.56371147	      0.04326045	      0.98049000	      0.29614166	     27.64944530	      3.52242603	     -9.86936854	    -18.06171338	      2.76196459	    -12.96042586	     19.28580389	    -17.95089077	     -1.78620691	     14.67038562	    -26.00136921	     -9.59895289	      0.00000000	      0.00000000	      0.00000000	      0.00000000	      0.00000000	      6.21930897	    -13.62035158	      4.80831644	      1.16527554
      0.66250000	      0.92955662	     -3.44453626	      2.41454551	      0.04955240	      0.98011569	      0.29662141	     27.72155499	      3.81438964	     -9.77838271	    -18.84279086	      2.33350704	    -13.08482269	     19.39766762	    -18.11659861	     -1.96668027	     14.37532456	    -26.37591692	     -9.43715355	      0.00000000	      0.00000000	      0.00000000	      0.00000000	      0.00000000	      5.92448830	    -13.60721477	      5.12088011	      1.25034982
      0.66666667	      0.97681426	     -3.70244290	      2.24488208	      0.05586944	      0.97978592	      0.29704105	     27.76009643	      4.12674674	     -9.66444608	    -19.56998643	      1.93680973	    -13.21641233	     19.52573439	    -18.26288004	     -2.14639120	     14.03855941	    -26.77973614	     -9.25947859	      0.00000000	      0.00000000	      0.00000000	      0.00000000	      0.00000000	      5.58876911	    -13.58738729	      5.49801811	      1.41820962
      0.67083333	      1.03159652	     -3.96504774	      2.06472653	      0.06216930	      0.97955755	      0.29747504	     27.77296277	      4.45062955	     -9.54394803	    -20.26415553	      1.58171329	    -13.34907360	     19.66432019	    -18.40460495	     -2.32918016	     13.67436751	    -27.17582736	     -9.04167834	      0.00000000	      0.00000000	      0.00000000	      0.00000000	      0.00000000	      5.24214561	    -13.58266944	      5.87404251	      1.61240069
      0.67500000	      1.06398836	     -4.14399131	      2.00544927	      0.06839109	      0.97944509	      0.29773518	     27.78243788	      4.64083808	     -9.43394776	    -20.94152891	      1.39935062	    -13.37904776	     19.68874128	    -18.51391777	     -2.45578752	     13.58218853	    -27.46050453	     -8.70011807	      0.00000000	      0.00000000	      0.00000000	      0.00000000	      0.00000000	      4.86898153	    -13.55186339	      6.17836945	      1.65885379
      0.67916667	      1.15167727	     -4.48311638	      1.69978099	      0.07481625	      0.97929236	      0.29834933	     27.74889494	      5.08092311	     -9.33738474	    -21.63860070	      1.06728309	    -13.46656692	     19.86098115	    -18.67617421	     -2.69407458	     12.88063896	    -27.91248846	     -8.47979925	      0.00000000	      0.00000000	      0.00000000	      0.00000000	      0.00000000	      4.52704042	    -13.56668349	      6.60825916	      1.97252569
      0.68333333	      1.20145927	     -4.67803638	      1.55861363	      0.08118855	      0.97926196	      0.29876369	     27.72161654	      5.30445468	     -9.29837881	    -22.31483527	      0.89910687	    -13.53770201	     19.93286822	    -18.79564663	     -2.82636980	     12.55899845	    -28.20166560	     -8.09795286	      0.00000000	      0.00000000	      0.00000000	      0.00000000	      0.00000000	      4.08105271	    -13.53365720	      6.90696575	      2.07865461
